<svg viewBox="0 0 52 47" version="1.1" xmlns="http://www.w3.org/2000/svg" xmlns:xlink="http://www.w3.org/1999/xlink" xml:space="preserve" style="fill-rule:evenodd;clip-rule:evenodd;stroke-linejoin:round;stroke-miterlimit:1.41421;fill:#a0a2d7;">
    <defs>
        <linearGradient id="logo-gradient" x1="50%" y1="0%" x2="50%" y2="100%" > 
            <stop offset="0%" stop-color="#a4c9e1">
                <animate attributeName="stop-color" values="#a4c9e1; #d393d3; #a4c9e1" dur="4s" repeatCount="indefinite"></animate>
            </stop>
            <stop offset="100%" stop-color="#d393d3">
                <animate attributeName="stop-color" values="#d393d3; #a4c9e1; #d393d3" dur="4s" repeatCount="indefinite"></animate>
            </stop>
        </linearGradient>
    </defs>
    <g>
        <path fill="url('#logo-gradient')" d="M46.18,46.682c-1.567,0 -3.134,-0.645 -4.263,-1.912l-19.264,-21.407l19.333,-20.692c2.166,-2.328 5.807,-2.443 8.111,-0.277c2.327,2.166 2.442,5.807 0.276,8.111l-12.143,12.996l12.213,13.595c2.12,2.351 1.935,5.992 -0.438,8.111c-1.083,0.991 -2.466,1.475 -3.825,1.475Z" style="fill-rule:nonzero;"></path>
        <path fill="url('#logo-gradient')" d="M5.993,46.659c-3.249,0 -5.899,-2.627 -5.899,-5.899l0,-34.518c0,-3.249 2.65,-5.899 5.899,-5.899c3.249,0 5.899,2.65 5.899,5.899l0,34.518c0,3.272 -2.627,5.899 -5.899,5.899Z" style="fill-rule:nonzero;"></path>
    </g>
</svg>