<svg viewBox="0 0 52 47" version="1.1" xmlns="http://www.w3.org/2000/svg" xmlns:xlink="http://www.w3.org/1999/xlink" xml:space="preserve" style="fill-rule:evenodd;clip-rule:evenodd;stroke-linejoin:round;stroke-miterlimit:1.41421;fill:#b4a0d7;">
    <g>
        <path d="M46.18,46.682c-1.567,0 -3.134,-0.645 -4.263,-1.912l-19.264,-21.407l19.333,-20.692c2.166,-2.328 5.807,-2.443 8.111,-0.277c2.327,2.166 2.442,5.807 0.276,8.111l-12.143,12.996l12.213,13.595c2.12,2.351 1.935,5.992 -0.438,8.111c-1.083,0.991 -2.466,1.475 -3.825,1.475Z" style="fill-rule:nonzero;"></path>
        <path d="M5.993,46.659c-3.249,0 -5.899,-2.627 -5.899,-5.899l0,-34.518c0,-3.249 2.65,-5.899 5.899,-5.899c3.249,0 5.899,2.65 5.899,5.899l0,34.518c0,3.272 -2.627,5.899 -5.899,5.899Z" style="fill-rule:nonzero;"></path>
    </g>
</svg>